<svg xmlns="http://www.w3.org/2000/svg" xmlns:xlink="http://www.w3.org/1999/xlink" width="700" zoomAndPan="magnify" viewBox="0 0 525 262.499992" height="350" preserveAspectRatio="xMidYMid meet" version="1.0"><defs><g/><clipPath id="46227b2874"><path d="M 256 108 L 285.960938 108 L 285.960938 127 L 256 127 Z M 256 108 " clip-rule="nonzero"/></clipPath><clipPath id="cf24113a6c"><path d="M 222.332031 129 L 258 129 L 258 150 L 222.332031 150 Z M 222.332031 129 " clip-rule="nonzero"/></clipPath><clipPath id="90b4f65586"><path d="M 254 74.855469 L 273 74.855469 L 273 92 L 254 92 Z M 254 74.855469 " clip-rule="nonzero"/></clipPath><clipPath id="241f129f37"><path d="M 244 79 L 274 79 L 274 160.945312 L 244 160.945312 Z M 244 79 " clip-rule="nonzero"/></clipPath></defs><g clip-path="url(#46227b2874)"><path fill="#7ed957" d="M 271.523438 123.074219 C 277.664062 117.988281 282.464844 115.789062 285.929688 116.480469 C 271.9375 103.816406 257.292969 107.941406 256.304688 120.722656 C 261.28125 114.726562 267.035156 112.460938 273.550781 113.925781 C 265.78125 114.398438 260.421875 117.652344 257.46875 123.683594 C 261.472656 127.289062 266.15625 127.082031 271.523438 123.074219 Z M 271.523438 123.074219 " fill-opacity="1" fill-rule="nonzero"/></g><g clip-path="url(#cf24113a6c)"><path fill="#7ed957" d="M 241.035156 147.042969 C 231.667969 139.449219 225.445312 136.484375 222.367188 138.148438 C 240.738281 122.777344 257.15625 128.636719 257.625 143.15625 C 251.25 136.25 244.65625 133.558594 237.839844 135.082031 C 245.445312 134.886719 251.683594 138.789062 256.554688 146.785156 C 252.140625 150.945312 246.96875 151.027344 241.035156 147.039062 Z M 241.035156 147.042969 " fill-opacity="1" fill-rule="nonzero"/></g><g clip-path="url(#90b4f65586)"><path fill="#c9e265" d="M 256.339844 76.25 L 259.777344 79.160156 L 263.105469 75.164062 C 263.410156 74.800781 263.957031 74.75 264.320312 75.058594 L 265.097656 75.714844 C 265.460938 76.023438 265.507812 76.574219 265.203125 76.941406 L 261.875 80.933594 L 266.421875 84.777344 L 269.75 80.785156 C 270.054688 80.417969 270.601562 80.371094 270.960938 80.679688 L 271.742188 81.335938 C 272.105469 81.640625 272.152344 82.191406 271.847656 82.558594 L 268.519531 86.550781 L 271.960938 89.457031 L 269.9375 91.886719 L 254.316406 78.675781 Z M 256.339844 76.25 " fill-opacity="1" fill-rule="nonzero"/></g><g clip-path="url(#241f129f37)"><path fill="#008037" d="M 256.425781 156.75 C 261.933594 143.179688 256.929688 134.09375 252.355469 125.777344 C 247.140625 116.3125 242.414062 107.722656 251.125 95.1875 L 247.300781 91.957031 C 247.035156 89.289062 247.789062 86.519531 249.625 84.316406 L 253.261719 79.949219 L 268.878906 93.15625 L 265.242188 97.523438 C 263.40625 99.726562 260.828125 100.957031 258.175781 101.152344 L 254.507812 98.050781 C 247.699219 108.179688 251.742188 115.527344 256.199219 123.625 C 261.089844 132.507812 266.417969 142.183594 261.144531 156.75 L 272.089844 156.75 C 272.644531 156.75 273.101562 157.210938 273.101562 157.773438 L 273.101562 159.921875 C 273.101562 160.480469 272.644531 160.941406 272.089844 160.941406 L 245.792969 160.941406 C 245.234375 160.941406 244.78125 160.480469 244.78125 159.921875 L 244.78125 157.773438 C 244.78125 157.210938 245.234375 156.75 245.792969 156.75 Z M 256.425781 156.75 " fill-opacity="1" fill-rule="nonzero"/></g><g fill="#008037" fill-opacity="1"><g transform="translate(109.151595, 159.484147)"><g><path d="M 18.578125 -44.335938 L 19.109375 -43.277344 C 18.429688 -43.125 16.238281 -41.917969 18.125 -37.914062 L 29.003906 -15.859375 L 39.878906 -37.992188 C 42.070312 -42.371094 38.820312 -43.277344 38.820312 -43.277344 L 39.351562 -44.335938 L 50.375 -44.335938 L 49.847656 -43.277344 C 48.941406 -43.203125 45.164062 -41.691406 43.503906 -37.765625 L 24.925781 0 L 6.644531 -37.085938 C 4.910156 -40.859375 3.171875 -42.824219 0.527344 -43.277344 L 0 -44.335938 Z M 18.578125 -44.335938 "/></g></g></g><g fill="#008037" fill-opacity="1"><g transform="translate(160.131374, 159.484147)"><g><path d="M 19.109375 0 L 0 0 L 0 -1.058594 C 0 -1.058594 3.625 -1.585938 3.625 -6.570312 L 3.625 -26.207031 C 3.625 -31.042969 0 -31.722656 0 -31.722656 L 0 -32.777344 L 15.40625 -33.910156 L 15.40625 -6.949219 C 15.40625 -1.585938 19.109375 -1.058594 19.109375 -1.058594 Z M 9.0625 -47.65625 C 12.460938 -47.65625 15.179688 -44.863281 15.179688 -41.464844 C 15.179688 -38.066406 12.460938 -35.347656 9.0625 -35.347656 C 5.589844 -35.347656 2.871094 -38.066406 2.871094 -41.464844 C 2.871094 -44.863281 5.589844 -47.65625 9.0625 -47.65625 Z M 9.0625 -47.65625 "/></g></g></g><g fill="#008037" fill-opacity="1"><g transform="translate(179.843502, 159.484147)"><g><path d="M 22.808594 -30.964844 L 22.808594 -35.648438 C 22.808594 -41.011719 19.183594 -41.539062 19.183594 -41.539062 L 19.183594 -42.597656 L 34.667969 -44.335938 C 34.667969 -44.335938 34.589844 -39.726562 34.589844 -34.894531 L 34.589844 -6.570312 C 34.589844 -1.585938 38.21875 -1.058594 38.21875 -1.058594 L 38.21875 0 L 17.296875 0 C 3.019531 0 0 -8.6875 0 -16.617188 C 0 -30.058594 12.234375 -38.59375 22.808594 -30.964844 Z M 22.808594 -28.925781 C 14.351562 -33.382812 12.007812 -25.753906 12.007812 -16.765625 C 12.007812 -10.421875 13.292969 -1.886719 19.109375 -1.886719 C 20.390625 -1.886719 22.886719 -1.886719 22.808594 -7.324219 Z M 22.808594 -28.925781 "/></g></g></g><g fill="#008037" fill-opacity="1"><g transform="translate(218.724091, 159.484147)"><g/></g></g><g fill="#008037" fill-opacity="1"><g transform="translate(247.423782, 159.484147)"><g/></g></g><g fill="#008037" fill-opacity="1"><g transform="translate(276.11994, 159.484147)"><g><path d="M 23.488281 -11.480469 L 23.488281 -25.527344 C 23.488281 -30.890625 19.863281 -31.417969 19.863281 -31.417969 L 19.863281 -32.550781 L 35.347656 -34.289062 C 35.347656 -34.289062 35.269531 -29.683594 35.269531 -24.847656 L 35.269531 -7.324219 C 35.269531 -1.964844 38.445312 -1.433594 38.445312 -1.433594 L 38.445312 -0.300781 C 30.136719 -1.660156 23.261719 0 19.257812 0 C 8.007812 0 3.625 -4.984375 3.625 -12.6875 L 3.625 -25.527344 C 3.625 -30.890625 0 -31.417969 0 -31.417969 L 0 -32.550781 L 15.484375 -34.289062 C 15.484375 -34.289062 15.484375 -29.683594 15.484375 -24.847656 L 15.484375 -11.027344 C 15.484375 -7.554688 15.484375 -2.339844 19.5625 -2.339844 C 23.1875 -2.339844 23.414062 -6.042969 23.488281 -11.480469 Z M 23.488281 -11.480469 "/></g></g></g><g fill="#008037" fill-opacity="1"><g transform="translate(314.63797, 159.484147)"><g><path d="M 0 -30.136719 L 0 -32.476562 C 5.964844 -32.476562 9.140625 -36.933594 15.558594 -39.273438 C 15.558594 -39.273438 15.558594 -36.855469 15.558594 -32.476562 L 19.484375 -32.476562 L 19.484375 -30.136719 L 15.558594 -30.136719 C 15.484375 -24.773438 15.484375 -17.371094 15.484375 -8.460938 C 15.484375 -2.492188 21.601562 -4.078125 21.601562 -4.078125 C 21.375 -1.964844 17.75 1.132812 14.351562 1.132812 C 8.382812 1.132812 3.625 -1.433594 3.625 -9.367188 L 3.625 -24.621094 C 3.699219 -28.171875 3.019531 -30.136719 0 -30.136719 Z M 0 -30.136719 "/></g></g></g><g fill="#008037" fill-opacity="1"><g transform="translate(336.389292, 159.484147)"><g><path d="M 23.714844 -15.785156 C 25.152344 -19.183594 26.886719 -23.261719 28.699219 -27.492188 C 30.589844 -31.949219 27.644531 -32.777344 27.644531 -32.777344 L 28.171875 -33.835938 L 39.199219 -33.835938 L 38.671875 -32.777344 C 37.765625 -32.703125 33.988281 -31.191406 32.324219 -27.265625 L 19.636719 0.0742188 L 6.644531 -26.585938 C 4.910156 -30.363281 3.171875 -32.25 0.527344 -32.703125 L 0 -33.835938 L 18.578125 -33.835938 L 19.109375 -32.703125 C 18.503906 -32.628906 16.238281 -31.417969 18.125 -27.339844 Z M 23.714844 -15.785156 "/></g></g></g><g fill="#008037" fill-opacity="1"><g transform="translate(375.20942, 159.484147)"><g><path d="M 23.035156 -22.660156 C 23.035156 -37.3125 11.328125 -28.851562 14.199219 -24.621094 L 4.757812 -27.417969 C 7.855469 -31.269531 10.347656 -33.382812 17.371094 -33.761719 C 18.957031 -33.835938 35.042969 -34.742188 34.894531 -21.449219 C 34.742188 -12.839844 34.894531 -6.949219 34.894531 -6.949219 C 34.894531 -1.585938 38.519531 -1.058594 38.519531 -1.058594 L 38.519531 0 L 28.171875 0 C 25.527344 0 24.546875 -0.980469 24.320312 -1.738281 C 23.035156 -0.453125 20.164062 0 17.296875 0 C 2.945312 0 0 -5.136719 0 -11.328125 C 0 -22.433594 13.140625 -22.660156 23.035156 -22.660156 Z M 23.035156 -20.769531 C 18.351562 -20.617188 11.933594 -20.390625 11.933594 -11.480469 C 11.933594 -5.058594 13.972656 -2.113281 18.957031 -2.113281 C 19.863281 -2.113281 23.035156 -2.792969 23.035156 -7.175781 C 23.035156 -11.027344 23.035156 -11.027344 23.035156 -20.769531 Z M 23.035156 -20.769531 "/></g></g></g></svg>