<svg xmlns="http://www.w3.org/2000/svg" xmlns:xlink="http://www.w3.org/1999/xlink" width="480" zoomAndPan="magnify" viewBox="0 0 360 213" height="284" preserveAspectRatio="xMidYMid meet" version="1.0"><defs><g/><clipPath id="9059f89cc9"><path d="M 176 93 L 193.734375 93 L 193.734375 104 L 176 104 Z M 176 93 " clip-rule="nonzero"/></clipPath><clipPath id="b0bab000b4"><path d="M 157.734375 105 L 178 105 L 178 117 L 157.734375 117 Z M 157.734375 105 " clip-rule="nonzero"/></clipPath></defs><g clip-path="url(#9059f89cc9)"><path fill="#7ed957" d="M 185.5625 101.882812 C 189.039062 99.046875 191.753906 97.824219 193.714844 98.207031 C 185.796875 91.148438 177.511719 93.445312 176.953125 100.574219 C 179.769531 97.230469 183.023438 95.96875 186.710938 96.78125 C 182.316406 97.046875 179.28125 98.863281 177.613281 102.226562 C 179.875 104.234375 182.527344 104.121094 185.5625 101.882812 Z M 185.5625 101.882812 " fill-opacity="1" fill-rule="nonzero"/></g><g clip-path="url(#b0bab000b4)"><path fill="#7ed957" d="M 168.3125 115.25 C 163.015625 111.015625 159.492188 109.363281 157.753906 110.289062 C 168.144531 101.71875 177.433594 104.988281 177.699219 113.082031 C 174.09375 109.230469 170.363281 107.730469 166.503906 108.578125 C 170.808594 108.472656 174.339844 110.648438 177.09375 115.105469 C 174.597656 117.425781 171.671875 117.472656 168.3125 115.246094 Z M 168.3125 115.25 " fill-opacity="1" fill-rule="nonzero"/></g><path fill="#c9e265" d="M 176.972656 75.777344 L 178.917969 77.398438 L 180.800781 75.171875 C 180.972656 74.96875 181.28125 74.941406 181.488281 75.113281 L 181.925781 75.480469 C 182.132812 75.648438 182.160156 75.957031 181.988281 76.160156 L 180.105469 78.386719 L 182.679688 80.53125 L 184.558594 78.304688 C 184.730469 78.101562 185.042969 78.074219 185.246094 78.246094 L 185.6875 78.613281 C 185.890625 78.78125 185.917969 79.089844 185.746094 79.292969 L 183.863281 81.519531 L 185.808594 83.140625 L 184.667969 84.496094 L 175.828125 77.128906 Z M 176.972656 75.777344 " fill-opacity="1" fill-rule="nonzero"/><path fill="#008037" d="M 177.019531 120.664062 C 180.136719 113.09375 177.308594 108.027344 174.71875 103.394531 C 171.769531 98.113281 169.09375 93.324219 174.023438 86.335938 L 171.859375 84.535156 C 171.707031 83.046875 172.132812 81.503906 173.171875 80.273438 L 175.230469 77.839844 L 184.066406 85.203125 L 182.011719 87.636719 C 180.972656 88.867188 179.511719 89.550781 178.011719 89.660156 L 175.9375 87.933594 C 172.082031 93.578125 174.371094 97.679688 176.894531 102.191406 C 179.660156 107.144531 182.675781 112.539062 179.691406 120.660156 L 185.882812 120.660156 C 186.199219 120.660156 186.457031 120.917969 186.457031 121.230469 L 186.457031 122.429688 C 186.457031 122.742188 186.199219 123 185.882812 123 L 171.007812 123 C 170.691406 123 170.433594 122.742188 170.433594 122.429688 L 170.433594 121.230469 C 170.433594 120.917969 170.691406 120.660156 171.007812 120.660156 L 177.019531 120.660156 Z M 177.019531 120.664062 " fill-opacity="1" fill-rule="nonzero"/><g fill="#008037" fill-opacity="1"><g transform="translate(94.364068, 122.381151)"><g><path d="M 10.402344 -24.820312 L 10.699219 -24.230469 C 10.316406 -24.144531 9.089844 -23.46875 10.148438 -21.226562 L 16.238281 -8.878906 L 22.328125 -21.269531 C 23.554688 -23.722656 21.734375 -24.230469 21.734375 -24.230469 L 22.03125 -24.820312 L 28.207031 -24.820312 L 27.910156 -24.230469 C 27.402344 -24.1875 25.289062 -23.34375 24.355469 -21.144531 L 13.953125 0 L 3.722656 -20.761719 C 2.75 -22.878906 1.777344 -23.976562 0.296875 -24.230469 L 0 -24.820312 Z M 10.402344 -24.820312 "/></g></g></g><g fill="#008037" fill-opacity="1"><g transform="translate(122.906821, 122.381151)"><g><path d="M 10.699219 0 L 0 0 L 0 -0.59375 C 0 -0.59375 2.03125 -0.886719 2.03125 -3.679688 L 2.03125 -14.671875 C 2.03125 -17.378906 0 -17.761719 0 -17.761719 L 0 -18.351562 L 8.625 -18.988281 L 8.625 -3.890625 C 8.625 -0.886719 10.699219 -0.59375 10.699219 -0.59375 Z M 5.074219 -26.683594 C 6.976562 -26.683594 8.5 -25.117188 8.5 -23.214844 C 8.5 -21.3125 6.976562 -19.789062 5.074219 -19.789062 C 3.128906 -19.789062 1.605469 -21.3125 1.605469 -23.214844 C 1.605469 -25.117188 3.128906 -26.683594 5.074219 -26.683594 Z M 5.074219 -26.683594 "/></g></g></g><g fill="#008037" fill-opacity="1"><g transform="translate(133.943322, 122.381151)"><g><path d="M 12.769531 -17.335938 L 12.769531 -19.960938 C 12.769531 -22.960938 10.742188 -23.257812 10.742188 -23.257812 L 10.742188 -23.851562 L 19.410156 -24.820312 C 19.410156 -24.820312 19.367188 -22.242188 19.367188 -19.535156 L 19.367188 -3.679688 C 19.367188 -0.886719 21.398438 -0.59375 21.398438 -0.59375 L 21.398438 0 L 9.683594 0 C 1.691406 0 0 -4.863281 0 -9.304688 C 0 -16.828125 6.851562 -21.609375 12.769531 -17.335938 Z M 12.769531 -16.195312 C 8.035156 -18.691406 6.722656 -14.417969 6.722656 -9.386719 C 6.722656 -5.835938 7.441406 -1.058594 10.699219 -1.058594 C 11.417969 -1.058594 12.8125 -1.058594 12.769531 -4.101562 Z M 12.769531 -16.195312 "/></g></g></g><g fill="#008037" fill-opacity="1"><g transform="translate(155.711934, 122.381151)"><g/></g></g><g fill="#008037" fill-opacity="1"><g transform="translate(171.780427, 122.381151)"><g/></g></g><g fill="#008037" fill-opacity="1"><g transform="translate(187.846941, 122.381151)"><g><path d="M 13.152344 -6.425781 L 13.152344 -14.292969 C 13.152344 -17.296875 11.121094 -17.589844 11.121094 -17.589844 L 11.121094 -18.226562 L 19.789062 -19.199219 C 19.789062 -19.199219 19.746094 -16.617188 19.746094 -13.914062 L 19.746094 -4.101562 C 19.746094 -1.097656 21.523438 -0.804688 21.523438 -0.804688 L 21.523438 -0.167969 C 16.871094 -0.929688 13.023438 0 10.78125 0 C 4.480469 0 2.03125 -2.789062 2.03125 -7.105469 L 2.03125 -14.292969 C 2.03125 -17.296875 0 -17.589844 0 -17.589844 L 0 -18.226562 L 8.667969 -19.199219 C 8.667969 -19.199219 8.667969 -16.617188 8.667969 -13.914062 L 8.667969 -6.175781 C 8.667969 -4.230469 8.667969 -1.3125 10.953125 -1.3125 C 12.980469 -1.3125 13.109375 -3.382812 13.152344 -6.425781 Z M 13.152344 -6.425781 "/></g></g></g><g fill="#008037" fill-opacity="1"><g transform="translate(209.412563, 122.381151)"><g><path d="M 0 -16.871094 L 0 -18.183594 C 3.339844 -18.183594 5.117188 -20.679688 8.710938 -21.988281 C 8.710938 -21.988281 8.710938 -20.636719 8.710938 -18.183594 L 10.910156 -18.183594 L 10.910156 -16.871094 L 8.710938 -16.871094 C 8.667969 -13.871094 8.667969 -9.726562 8.667969 -4.734375 C 8.667969 -1.394531 12.09375 -2.285156 12.09375 -2.285156 C 11.96875 -1.097656 9.9375 0.632812 8.035156 0.632812 C 4.695312 0.632812 2.03125 -0.804688 2.03125 -5.242188 L 2.03125 -13.785156 C 2.070312 -15.773438 1.691406 -16.871094 0 -16.871094 Z M 0 -16.871094 "/></g></g></g><g fill="#008037" fill-opacity="1"><g transform="translate(221.590775, 122.381151)"><g><path d="M 13.277344 -8.839844 C 14.082031 -10.742188 15.054688 -13.023438 16.070312 -15.390625 C 17.125 -17.886719 15.476562 -18.351562 15.476562 -18.351562 L 15.773438 -18.945312 L 21.945312 -18.945312 L 21.652344 -18.351562 C 21.144531 -18.308594 19.027344 -17.464844 18.097656 -15.265625 L 10.996094 0.0429688 L 3.722656 -14.886719 C 2.75 -17 1.777344 -18.054688 0.296875 -18.308594 L 0 -18.945312 L 10.402344 -18.945312 L 10.699219 -18.308594 C 10.359375 -18.269531 9.089844 -17.589844 10.148438 -15.308594 Z M 13.277344 -8.839844 "/></g></g></g><g fill="#008037" fill-opacity="1"><g transform="translate(243.325536, 122.381151)"><g><path d="M 12.898438 -12.6875 C 12.898438 -20.890625 6.34375 -16.152344 7.949219 -13.785156 L 2.664062 -15.351562 C 4.398438 -17.507812 5.792969 -18.691406 9.726562 -18.902344 C 10.613281 -18.945312 19.621094 -19.453125 19.535156 -12.007812 C 19.453125 -7.1875 19.535156 -3.890625 19.535156 -3.890625 C 19.535156 -0.886719 21.566406 -0.59375 21.566406 -0.59375 L 21.566406 0 L 15.773438 0 C 14.292969 0 13.742188 -0.550781 13.617188 -0.972656 C 12.898438 -0.253906 11.289062 0 9.683594 0 C 1.648438 0 0 -2.875 0 -6.34375 C 0 -12.558594 7.359375 -12.6875 12.898438 -12.6875 Z M 12.898438 -11.628906 C 10.277344 -11.542969 6.679688 -11.417969 6.679688 -6.425781 C 6.679688 -2.832031 7.824219 -1.183594 10.613281 -1.183594 C 11.121094 -1.183594 12.898438 -1.566406 12.898438 -4.015625 C 12.898438 -6.175781 12.898438 -6.175781 12.898438 -11.628906 Z M 12.898438 -11.628906 "/></g></g></g></svg>