<svg xmlns="http://www.w3.org/2000/svg" xmlns:xlink="http://www.w3.org/1999/xlink" width="500" zoomAndPan="magnify" viewBox="0 0 375 374.999991" height="500" preserveAspectRatio="xMidYMid meet" version="1.0"><defs><g/><clipPath id="5a842ef164"><path d="M 4 113 L 55 113 L 55 182 L 4 182 Z M 4 113 " clip-rule="nonzero"/></clipPath><clipPath id="a2484d6bee"><path d="M 0.00390625 119.601562 L 20.820312 107.640625 L 60.035156 175.90625 L 39.21875 187.867188 Z M 0.00390625 119.601562 " clip-rule="nonzero"/></clipPath><clipPath id="11820cf233"><path d="M 10.171875 113.757812 L 24.792969 115.664062 L 54.941406 168.140625 L 49.21875 181.730469 L 34.601562 179.828125 L 4.453125 127.347656 L 10.171875 113.757812 " clip-rule="nonzero"/></clipPath><clipPath id="ed74125cb6"><path d="M 62 111 L 113 111 L 113 182 L 62 182 Z M 62 111 " clip-rule="nonzero"/></clipPath><clipPath id="c3e6413516"><path d="M 96.46875 106.085938 L 117.578125 117.519531 L 79.554688 187.730469 L 58.445312 176.292969 Z M 96.46875 106.085938 " clip-rule="nonzero"/></clipPath><clipPath id="14dbe6caaa"><path d="M 106.78125 111.671875 L 112.84375 125.113281 L 83.492188 179.304688 L 68.921875 181.574219 L 62.863281 168.132812 L 92.214844 113.941406 L 106.78125 111.671875 " clip-rule="nonzero"/></clipPath><clipPath id="efce24067a"><path d="M 26 167 L 90 167 L 90 223 L 26 223 Z M 26 167 " clip-rule="nonzero"/></clipPath><clipPath id="2aab464b90"><path d="M 11.0625 194.898438 L 42.816406 141.054688 L 89.929688 168.839844 L 58.175781 222.683594 Z M 11.0625 194.898438 " clip-rule="nonzero"/></clipPath><clipPath id="8e0200f67f"><path d="M 26.941406 167.976562 L 89.929688 168.839844 L 58.175781 222.683594 L 26.941406 167.976562 " clip-rule="nonzero"/></clipPath><clipPath id="4c4a8c3804"><path d="M 197 167 L 228.292969 167 L 228.292969 186 L 197 186 Z M 197 167 " clip-rule="nonzero"/></clipPath><clipPath id="a9079f433a"><path d="M 162.871094 188 L 200 188 L 200 210 L 162.871094 210 Z M 162.871094 188 " clip-rule="nonzero"/></clipPath><clipPath id="61dfb201e7"><path d="M 195 132.972656 L 214 132.972656 L 214 151 L 195 151 Z M 195 132.972656 " clip-rule="nonzero"/></clipPath><clipPath id="55c49331f0"><path d="M 185 138 L 216 138 L 216 221.21875 L 185 221.21875 Z M 185 138 " clip-rule="nonzero"/></clipPath></defs><g clip-path="url(#5a842ef164)"><g clip-path="url(#a2484d6bee)"><g clip-path="url(#11820cf233)"><path fill="#ff914d" d="M 0.00390625 119.601562 L 20.335938 107.921875 L 59.273438 175.699219 L 38.941406 187.382812 Z M 0.00390625 119.601562 " fill-opacity="1" fill-rule="nonzero"/></g></g></g><g clip-path="url(#ed74125cb6)"><g clip-path="url(#c3e6413516)"><g clip-path="url(#14dbe6caaa)"><path fill="#00a181" d="M 96.46875 106.085938 L 117.089844 117.253906 L 79.332031 186.972656 L 58.710938 175.804688 Z M 96.46875 106.085938 " fill-opacity="1" fill-rule="nonzero"/></g></g></g><g clip-path="url(#efce24067a)"><g clip-path="url(#2aab464b90)"><g clip-path="url(#8e0200f67f)"><path fill="#d9d9d9" d="M 11.0625 194.898438 L 42.816406 141.054688 L 89.929688 168.839844 L 58.175781 222.683594 Z M 11.0625 194.898438 " fill-opacity="1" fill-rule="nonzero"/></g></g></g><g clip-path="url(#4c4a8c3804)"><path fill="#7ed957" d="M 213.445312 182.394531 C 219.761719 177.183594 224.699219 174.929688 228.257812 175.636719 C 213.875 162.65625 198.820312 166.882812 197.800781 179.984375 C 202.917969 173.839844 208.832031 171.519531 215.53125 173.019531 C 207.546875 173.503906 202.03125 176.839844 199 183.023438 C 203.113281 186.71875 207.929688 186.507812 213.445312 182.394531 Z M 213.445312 182.394531 " fill-opacity="1" fill-rule="nonzero"/></g><g clip-path="url(#a9079f433a)"><path fill="#7ed957" d="M 182.101562 206.964844 C 172.46875 199.183594 166.070312 196.144531 162.90625 197.851562 C 181.792969 182.09375 198.675781 188.101562 199.15625 202.984375 C 192.605469 195.90625 185.824219 193.144531 178.816406 194.707031 C 186.632812 194.507812 193.050781 198.503906 198.058594 206.703125 C 193.519531 210.964844 188.199219 211.054688 182.097656 206.964844 Z M 182.101562 206.964844 " fill-opacity="1" fill-rule="nonzero"/></g><g clip-path="url(#61dfb201e7)"><path fill="#c9e265" d="M 197.835938 134.402344 L 201.371094 137.378906 L 204.792969 133.289062 C 205.105469 132.914062 205.667969 132.863281 206.042969 133.175781 L 206.839844 133.851562 C 207.214844 134.167969 207.261719 134.730469 206.949219 135.105469 L 203.53125 139.199219 L 208.203125 143.140625 L 211.625 139.046875 C 211.9375 138.671875 212.5 138.625 212.871094 138.9375 L 213.671875 139.613281 C 214.042969 139.925781 214.09375 140.492188 213.78125 140.863281 L 210.359375 144.957031 L 213.894531 147.9375 L 211.816406 150.425781 L 195.757812 136.886719 L 197.835938 134.398438 Z M 197.835938 134.402344 " fill-opacity="1" fill-rule="nonzero"/></g><g clip-path="url(#55c49331f0)"><path fill="#00a181" d="M 197.921875 216.917969 C 203.585938 203.007812 198.445312 193.691406 193.738281 185.171875 C 188.378906 175.464844 183.519531 166.664062 192.472656 153.8125 L 188.542969 150.5 C 188.269531 147.765625 189.042969 144.925781 190.929688 142.667969 L 194.671875 138.191406 L 210.730469 151.730469 L 206.988281 156.207031 C 205.101562 158.464844 202.453125 159.722656 199.722656 159.925781 L 195.953125 156.75 C 188.953125 167.128906 193.109375 174.664062 197.691406 182.960938 C 202.71875 192.066406 208.199219 201.988281 202.777344 216.917969 L 214.03125 216.917969 C 214.601562 216.917969 215.070312 217.390625 215.070312 217.96875 L 215.070312 220.167969 C 215.070312 220.742188 214.601562 221.214844 214.03125 221.214844 L 186.996094 221.214844 C 186.417969 221.214844 185.949219 220.742188 185.949219 220.167969 L 185.949219 217.96875 C 185.949219 217.390625 186.417969 216.917969 186.996094 216.917969 Z M 197.921875 216.917969 " fill-opacity="1" fill-rule="nonzero"/></g><g fill="#00a181" fill-opacity="1"><g transform="translate(100.965181, 219.407942)"><g><path d="M 19.65625 0 L 0 0 L 0 -1.085938 C 0 -1.085938 3.730469 -1.632812 3.730469 -6.761719 L 3.730469 -26.960938 C 3.730469 -31.933594 0 -32.632812 0 -32.632812 L 0 -33.722656 L 15.851562 -34.886719 L 15.851562 -7.148438 C 15.851562 -1.632812 19.65625 -1.085938 19.65625 -1.085938 Z M 9.324219 -49.027344 C 12.820312 -49.027344 15.617188 -46.152344 15.617188 -42.65625 C 15.617188 -39.160156 12.820312 -36.363281 9.324219 -36.363281 C 5.75 -36.363281 2.953125 -39.160156 2.953125 -42.65625 C 2.953125 -46.152344 5.75 -49.027344 9.324219 -49.027344 Z M 9.324219 -49.027344 "/></g></g></g><g fill="#00a181" fill-opacity="1"><g transform="translate(121.239707, 219.407942)"><g><path d="M 23.464844 -31.855469 L 23.464844 -36.675781 C 23.464844 -42.191406 19.734375 -42.734375 19.734375 -42.734375 L 19.734375 -43.824219 L 35.664062 -45.609375 C 35.664062 -45.609375 35.585938 -40.871094 35.585938 -35.898438 L 35.585938 -6.761719 C 35.585938 -1.632812 39.316406 -1.085938 39.316406 -1.085938 L 39.316406 0 L 17.792969 0 C 3.109375 0 0 -8.933594 0 -17.09375 C 0 -30.925781 12.585938 -39.703125 23.464844 -31.855469 Z M 23.464844 -29.757812 C 14.761719 -34.34375 12.355469 -26.496094 12.355469 -17.25 C 12.355469 -10.722656 13.675781 -1.941406 19.65625 -1.941406 C 20.980469 -1.941406 23.542969 -1.941406 23.464844 -7.535156 Z M 23.464844 -29.757812 "/></g></g></g><g fill="#00a181" fill-opacity="1"><g transform="translate(161.230808, 219.407942)"><g/></g></g><g fill="#00a181" fill-opacity="1"><g transform="translate(190.749545, 219.407942)"><g/></g></g><g fill="#00a181" fill-opacity="1"><g transform="translate(220.261874, 219.407942)"><g><path d="M 24.164062 -11.808594 L 24.164062 -26.261719 C 24.164062 -31.777344 20.433594 -32.324219 20.433594 -32.324219 L 20.433594 -33.488281 L 36.363281 -35.277344 C 36.363281 -35.277344 36.285156 -30.535156 36.285156 -25.5625 L 36.285156 -7.535156 C 36.285156 -2.019531 39.550781 -1.476562 39.550781 -1.476562 L 39.550781 -0.3125 C 31.003906 -1.710938 23.929688 0 19.8125 0 C 8.234375 0 3.730469 -5.128906 3.730469 -13.054688 L 3.730469 -26.261719 C 3.730469 -31.777344 0 -32.324219 0 -32.324219 L 0 -33.488281 L 15.929688 -35.277344 C 15.929688 -35.277344 15.929688 -30.535156 15.929688 -25.5625 L 15.929688 -11.34375 C 15.929688 -7.769531 15.929688 -2.410156 20.125 -2.410156 C 23.855469 -2.410156 24.085938 -6.214844 24.164062 -11.808594 Z M 24.164062 -11.808594 "/></g></g></g><g fill="#00a181" fill-opacity="1"><g transform="translate(259.879314, 219.407942)"><g><path d="M 0 -31.003906 L 0 -33.410156 C 6.136719 -33.410156 9.402344 -37.996094 16.007812 -40.402344 C 16.007812 -40.402344 16.007812 -37.917969 16.007812 -33.410156 L 20.046875 -33.410156 L 20.046875 -31.003906 L 16.007812 -31.003906 C 15.929688 -25.484375 15.929688 -17.871094 15.929688 -8.703125 C 15.929688 -2.5625 22.222656 -4.195312 22.222656 -4.195312 C 21.988281 -2.019531 18.257812 1.164062 14.761719 1.164062 C 8.625 1.164062 3.730469 -1.476562 3.730469 -9.632812 L 3.730469 -25.328125 C 3.808594 -28.980469 3.109375 -31.003906 0 -31.003906 Z M 0 -31.003906 "/></g></g></g><g fill="#00a181" fill-opacity="1"><g transform="translate(282.251261, 219.407942)"><g><path d="M 24.398438 -16.238281 C 25.875 -19.734375 27.660156 -23.929688 29.527344 -28.28125 C 31.46875 -32.867188 28.4375 -33.722656 28.4375 -33.722656 L 28.980469 -34.808594 L 40.324219 -34.808594 L 39.78125 -33.722656 C 38.847656 -33.644531 34.964844 -32.089844 33.253906 -28.050781 L 20.203125 0.078125 L 6.835938 -27.351562 C 5.050781 -31.234375 3.261719 -33.175781 0.542969 -33.644531 L 0 -34.808594 L 19.113281 -34.808594 L 19.65625 -33.644531 C 19.035156 -33.566406 16.707031 -32.324219 18.648438 -28.128906 Z M 24.398438 -16.238281 "/></g></g></g><g fill="#00a181" fill-opacity="1"><g transform="translate(322.179415, 219.407942)"><g><path d="M 23.699219 -23.308594 C 23.699219 -38.382812 11.65625 -29.679688 14.609375 -25.328125 L 4.894531 -28.203125 C 8.082031 -32.167969 10.644531 -34.34375 17.871094 -34.730469 C 19.503906 -34.808594 36.050781 -35.742188 35.898438 -22.066406 C 35.742188 -13.207031 35.898438 -7.148438 35.898438 -7.148438 C 35.898438 -1.632812 39.625 -1.085938 39.625 -1.085938 L 39.625 0 L 28.980469 0 C 26.261719 0 25.253906 -1.011719 25.019531 -1.785156 C 23.699219 -0.464844 20.746094 0 17.792969 0 C 3.03125 0 0 -5.285156 0 -11.65625 C 0 -23.078125 13.519531 -23.308594 23.699219 -23.308594 Z M 23.699219 -21.367188 C 18.882812 -21.210938 12.277344 -20.980469 12.277344 -11.808594 C 12.277344 -5.207031 14.375 -2.175781 19.503906 -2.175781 C 20.433594 -2.175781 23.699219 -2.875 23.699219 -7.382812 C 23.699219 -11.34375 23.699219 -11.34375 23.699219 -21.367188 Z M 23.699219 -21.367188 "/></g></g></g></svg>